<svg width="50" height="50" viewBox="0 0 50 50" fill="none" xmlns="http://www.w3.org/2000/svg">
<g clip-path="url(#clip0_455_1274)">
<path d="M31.6291 40.0365C26.409 45.2566 18.2159 45.692 12.4999 41.3426C11.9798 40.9468 11.4802 40.5115 11.0052 40.0365C10.5302 39.5615 10.0948 39.0618 9.69899 38.5417C5.34967 32.8256 5.78507 24.6327 11.0052 19.4125C16.7003 13.7174 38.9948 12.0468 38.9948 12.0468C38.9948 12.0468 37.3243 34.3413 31.6291 40.0365Z" stroke="white" stroke-width="1.2"/>
<path d="M9.69891 38.5414C10.0947 39.0616 10.5301 39.5612 11.0051 40.0363C11.4801 40.5112 11.9797 40.9466 12.4998 41.3424C15.6247 35.4164 21.8747 28.1248 30.2081 19.7914C19.3747 25.9873 13.5416 33.3331 9.69891 38.5414Z" fill="white"/>
</g>
<defs>
<clipPath id="clip0_455_1274">
<rect width="50" height="50" fill="white"/>
</clipPath>
</defs>
</svg>
