
    <svg
      xmlns="http://www.w3.org/2000/svg"
      width="40"
      height="40"
      fill="#b9b9b9"
      viewBox="0 0 60 60"
    >
      <path
        fill="#b9b9b9"
        d="M6.618 39.992c-1.787-.067-3.25-.524-4.394-1.374a8.51 8.51 0 01-.912-.854c-.464-.546-.78-1.077-.99-1.665-.647-1.813-.314-4.192.953-6.803 1.084-2.235 2.758-4.452 5.678-7.523.43-.452 1.71-1.773 1.719-1.773.003 0-.067.113-.155.25-.759 1.19-1.408 2.591-1.762 3.804-.569 1.946-.5 3.616.2 4.911A4.979 4.979 0 009.2 31.057c1.632.748 4.02.81 6.937.181.2-.043 10.151-2.514 22.113-5.49C50.21 22.77 59.999 20.338 60 20.34c.003.002-27.79 11.126-42.218 16.896-2.284.914-2.896 1.145-3.97 1.498-2.746.901-5.205 1.332-7.194 1.258z"
      ></path>
    </svg>

