
    <svg version="1.0" xmlns="http://www.w3.org/2000/svg"
    width="286.000000pt" height="205.000000pt" viewBox="0 0 286.000000 205.000000"
    preserveAspectRatio="xMidYMid meet">

    <g transform="translate(0.000000,205.000000) scale(0.100000,-0.100000)"
    fill="#000000" stroke="none">
        <path d="M1900 1823 c0 -5 -14 -24 -31 -43 -16 -19 -62 -73 -102 -120 -39 -47
        -103 -121 -142 -166 -38 -44 -99 -115 -135 -157 -35 -42 -67 -77 -70 -76 -3 0
        -34 35 -70 77 -36 41 -103 119 -150 173 -47 53 -125 142 -174 198 -49 55 -94
        101 -100 101 -7 0 -58 -41 -114 -91 -89 -79 -101 -93 -90 -107 13 -17 248
        -297 401 -479 48 -57 87 -109 87 -115 0 -11 -47 -69 -132 -162 l-43 -48 -100
        37 c-55 20 -114 43 -132 51 -17 8 -36 14 -42 14 -6 0 -19 4 -29 9 -48 26 -317
        120 -324 113 -7 -7 -108 -269 -108 -281 0 -3 30 -17 68 -29 37 -13 76 -27 87
        -32 47 -20 322 -120 331 -120 5 -1 27 -9 49 -20 22 -11 44 -19 49 -20 4 0 64
        -21 132 -47 114 -43 125 -45 141 -30 10 8 72 83 138 166 66 82 123 150 126
        150 7 1 160 -177 243 -280 21 -27 43 -49 48 -49 5 0 176 64 381 142 205 77
        391 148 415 156 45 15 47 19 33 54 -5 13 -17 43 -26 68 -10 25 -21 54 -26 65
        -5 11 -17 43 -28 70 -12 30 -25 49 -33 47 -28 -6 -313 -116 -322 -124 -6 -4
        -16 -8 -24 -8 -8 0 -28 -6 -45 -14 -18 -7 -50 -20 -72 -29 -22 -8 -64 -25 -93
        -36 -29 -12 -57 -19 -62 -16 -6 3 -48 51 -96 106 l-85 99 18 24 c27 35 131
        163 193 237 30 36 83 99 116 140 34 41 87 105 118 142 32 37 56 72 54 77 -3
        10 -215 190 -223 190 -3 0 -5 -3 -5 -7z"/>
        <path d="M780 185 l0 -95 648 2 647 3 0 90 0 90 -647 3 -648 2 0 -95z"/>
    </g>
</svg>
